<svg width="195" height="32" viewBox="0 0 195 32" fill="none" xmlns="http://www.w3.org/2000/svg">
<path fill-rule="evenodd" clip-rule="evenodd" d="M7.37037 1.76634C7.22761 2.6873 7.07314 3.60666 6.91438 4.5252V4.5252C6.59768 6.36108 6.24587 8.19214 5.96066 10.033V10.033C5.49235 13.0604 5.24387 16.1073 5.35305 19.1782V19.1782C5.38399 20.0513 5.43323 20.9221 5.63668 21.7757V21.7757C5.70217 22.05 5.78549 22.3254 5.9013 22.5819V22.5819C6.07234 22.9603 6.39611 23.1659 6.79409 23.2332V23.2332C7.19567 23.3003 7.4489 23.1088 7.52215 22.703V22.703C7.5465 22.5645 7.56652 22.422 7.56463 22.2817V22.2817C7.5577 21.8157 7.55773 21.3478 7.52418 20.8838V20.8838C7.38098 18.8768 7.43702 16.8723 7.55735 14.8676V14.8676C7.77605 11.2191 8.37572 7.62097 8.88708 4.01058V4.01058C8.9246 3.74068 9.0466 3.57022 9.28079 3.45026V3.45026C9.93904 3.11286 10.6501 2.99536 11.3739 2.94167V2.94167C11.5265 2.92998 11.6839 2.99244 11.8271 3.0191V3.0191C11.9896 3.28678 11.991 3.54823 11.9369 3.80951V3.80951C11.8767 4.1065 11.8109 4.40446 11.72 4.69267V4.69267C11.1443 6.51654 10.3379 8.23266 9.34493 9.85947V9.85947C9.06002 10.3246 8.75869 10.7789 8.45786 11.2332V11.2332C8.35328 11.3906 8.29166 11.5562 8.30376 11.7455V11.7455C8.3549 12.5153 9.08056 13.1635 9.83176 13.0678V13.0678C10.3281 13.0044 10.8176 12.8814 11.3059 12.7691V12.7691C11.7953 12.6571 12.278 12.519 12.7666 12.4056V12.4056C12.9615 12.3602 13.1638 12.3361 13.3631 12.3303V12.3303C13.8195 12.3169 14.026 12.4783 14.1476 12.921V12.921C14.2687 13.3606 14.2644 13.804 14.1685 14.2463V14.2463C14.0219 14.9214 13.8115 15.5769 13.5323 16.2067V16.2067C12.5158 18.5032 11.2921 20.6847 9.92898 22.7874V22.7874C9.11815 24.0401 8.30047 25.2894 7.50589 26.5518V26.5518C6.77531 27.7123 6.09036 28.9019 5.19565 29.9497V29.9497C4.88374 30.3147 4.89002 30.6534 5.1559 31.0576V31.0576C5.3893 31.4129 5.71677 31.6336 6.12363 31.7366V31.7366C6.36537 31.7978 6.61164 31.7905 6.82782 31.6685V31.6685C7.0871 31.5231 7.34859 31.3873 7.56213 31.1562V31.1562C8.03124 30.6497 8.42133 30.0895 8.78329 29.508V29.508C9.67804 28.069 10.5538 26.6191 11.4499 25.1819V25.1819C12.2825 23.8467 13.1152 22.5119 13.8266 21.1047V21.1047C14.5547 19.662 15.2647 18.2115 15.7735 16.67V16.67C16.0154 15.9377 16.225 15.1959 16.2618 14.4216V14.4216C16.2994 13.6193 16.196 12.8267 15.7517 12.1409V12.1409C14.9663 10.9268 13.8274 10.4018 12.404 10.5169V10.5169C12.0898 10.5424 11.7803 10.6059 11.3508 10.669V10.669C11.5839 10.2162 11.7602 9.87677 11.9347 9.53604V9.53604C12.5909 8.25706 13.1664 6.94407 13.5389 5.54834V5.54834C13.6426 5.15926 13.7293 4.75902 13.7636 4.35909V4.35909C13.8137 3.76337 13.7085 3.18141 13.4073 2.65655V2.65655C13.0451 2.02393 12.475 1.66344 11.7907 1.47047V1.47047C11.0279 1.25569 10.2786 1.34217 9.53077 1.54799V1.54799C9.34273 1.60003 9.16699 1.72175 8.96119 1.67307V1.67307C8.83048 1.53511 8.72056 1.38561 8.58148 1.27378V1.27378C8.34444 1.08323 8.11344 1.01225 7.91664 1.04695V1.04695C7.64333 1.09515 7.43558 1.34733 7.37037 1.76634V1.76634Z" fill="#CCCCCC"/>
<path fill-rule="evenodd" clip-rule="evenodd" d="M29.5321 5.50816C29.1549 6.64239 28.7746 7.77559 28.4072 8.91292V8.91292C28.262 9.35969 28.0709 9.78012 27.8245 10.1773V10.1773C26.7998 11.8348 25.6335 13.3843 24.3435 14.8387V14.8387C23.5651 15.7152 22.7663 16.5721 21.854 17.3112V17.3112C21.2739 17.7817 20.6713 18.2197 20.01 18.5699V18.5699C19.7038 18.7321 19.3839 18.8426 19.0379 18.8643V18.8643C18.7716 18.8814 18.6469 18.7879 18.6448 18.5301V18.5301C18.6423 18.1856 18.6642 17.8406 18.6913 17.4971V17.4971C18.7251 17.069 18.9106 16.7818 19.32 16.5592V16.5592C20.4209 15.96 21.416 15.2044 22.2562 14.2556V14.2556C22.6773 13.7799 22.9957 13.2474 23.1813 12.6348V12.6348C23.3004 12.2412 23.3576 11.8384 23.2922 11.4329V11.4329C23.1992 10.8575 22.9073 10.4263 22.3594 10.1814V10.1814C21.8126 9.93714 21.2933 9.99602 20.8098 10.3095V10.3095C20.5256 10.4939 20.2645 10.7248 20.0243 10.967V10.967C19.3517 11.6457 18.8212 12.4344 18.3765 13.2815V13.2815C17.9528 14.0903 17.5986 14.9286 17.3497 15.8108V15.8108C17.2935 16.0076 17.2352 16.1682 17.0124 16.2673V16.2673C16.7548 16.382 16.7057 16.5731 16.8744 16.8154V16.8154C17.041 17.0555 17.0748 17.2864 17.0277 17.5586V17.5586C17.0032 17.6975 17.0098 17.8422 17.0139 17.9847V17.9847C17.0579 19.6432 18.4337 20.7438 20.0513 20.4246V20.4246C20.5313 20.3301 20.9734 20.1457 21.3935 19.903V19.903C22.2516 19.4077 23.031 18.8034 23.7603 18.1309V18.1309C24.7871 17.1847 25.7204 16.1527 26.5371 15.0148V15.0148C26.6224 14.896 26.6781 14.7277 26.9041 14.7122V14.7122C26.8765 14.9508 26.8586 15.1724 26.8243 15.3909V15.3909C26.6516 16.4564 26.5954 17.5297 26.6414 18.6071V18.6071C26.6516 18.8669 26.6899 19.1375 26.7778 19.3808V19.3808C27.2414 20.6602 28.4261 20.9566 29.3793 20.2356V20.2356C29.5725 20.09 29.7651 19.9386 29.9328 19.7661V19.7661C30.5093 19.1727 31.0981 18.589 31.6398 17.964V17.964C32.4739 17.0034 33.2722 16.0101 34.0879 15.0329V15.0329C34.2142 14.8811 34.3522 14.7375 34.5765 14.4896V14.4896C34.5229 14.737 34.504 14.849 34.4738 14.9596V14.9596C34.3767 15.3108 34.2663 15.6589 34.1784 16.0127V16.0127C34.0113 16.6842 33.9147 17.3644 33.9474 18.0606V18.0606C33.9637 18.4062 34.0844 18.7021 34.3394 18.9201V18.9201C34.5351 19.089 34.7605 19.231 34.9905 19.3514V19.3514C35.1076 19.4123 35.2634 19.418 35.4009 19.4144V19.4144C35.6652 19.4077 35.8512 19.2202 35.8773 18.9568V18.9568C35.8844 18.8772 35.8793 18.7925 35.8599 18.7156V18.7156C35.7546 18.3117 35.7904 17.9077 35.8727 17.509V17.509C36.1062 16.3779 36.3521 15.2483 36.5887 14.1172V14.1172C36.6935 13.6177 36.7098 13.1162 36.6787 12.6043V12.6043C36.648 12.1028 36.3991 11.7712 36.0091 11.5161V11.5161C35.635 11.2713 35.3631 11.2738 35.0309 11.5806V11.5806C34.5566 12.0176 34.0925 12.4685 33.654 12.9426V12.9426C32.8036 13.8615 31.9776 14.8031 31.1354 15.7297V15.7297C30.429 16.5075 29.7176 17.2797 29.0016 18.0482V18.0482C28.8268 18.2368 28.6453 18.4258 28.3341 18.6138V18.6138C28.3218 18.4041 28.3106 18.2848 28.3101 18.1665V18.1665C28.3044 17.4129 28.3985 16.6682 28.5089 15.9249V15.9249C28.8043 13.9343 29.2914 11.9871 29.8377 10.0554V10.0554C30.1858 8.82666 30.5752 7.61031 30.9417 6.38724V6.38724C31.1124 5.81444 30.7158 5.20807 30.1336 5.1337V5.1337C30.0953 5.12853 30.0585 5.12646 30.0232 5.12646V5.12646C29.7784 5.12646 29.619 5.24888 29.5321 5.50816V5.50816ZM21.5175 12.0438C21.5431 12.067 21.5917 12.0991 21.5871 12.1109V12.1109C21.3709 12.7029 20.7484 13.4585 20.1846 13.8216V13.8216C20.3737 13.2664 20.9461 12.504 21.5175 12.0438V12.0438Z" fill="#CCCCCC"/>
<path fill-rule="evenodd" clip-rule="evenodd" d="M166.053 8.24395C165.729 8.2517 165.42 8.34415 165.132 8.49704V8.49704C164.104 9.04039 163.229 9.77796 162.491 10.6761V10.6761C162.125 11.1214 161.929 11.6456 161.858 12.2287V12.2287C161.741 13.1936 162.446 14.1279 163.278 14.3836V14.3836C163.977 14.5995 164.661 14.5752 165.329 14.2637V14.2637C165.469 14.1987 165.609 14.1326 165.828 14.0303V14.0303C165.776 14.2219 165.757 14.3371 165.713 14.4419V14.4419C165.448 15.0994 165.188 15.7585 164.907 16.4088V16.4088C163.612 19.4101 161.789 22.0174 159.285 24.1216V24.1216C157.956 25.2373 156.559 26.2538 155.103 27.1907V27.1907C153.302 28.3507 151.396 29.2866 149.356 29.9364V29.9364C149.166 29.9979 148.975 30.0635 148.793 30.1476V30.1476C148.568 30.2535 148.481 30.4482 148.504 30.6977V30.6977C148.535 31.0252 148.706 31.2736 148.965 31.4477V31.4477C149.232 31.6269 149.522 31.7607 149.843 31.8319V31.8319C150.451 31.9673 151.042 31.8614 151.63 31.7286V31.7286C152.853 31.4508 153.985 30.9322 155.078 30.3289V30.3289C156.964 29.2856 158.728 28.0522 160.405 26.6974V26.6974C161.503 25.8122 162.551 24.8654 163.445 23.7637V23.7637C164.894 21.9787 166.021 20.0015 166.846 17.8493V17.8493C167.614 15.8406 168.183 13.771 168.661 11.6735V11.6735C168.74 11.3187 168.829 10.9633 168.943 10.6178V10.6178C169.161 9.9515 168.817 9.29038 168.135 9.11735V9.11735C167.981 9.07862 167.819 9.07242 167.608 9.04401V9.04401C167.526 8.95207 167.423 8.82811 167.314 8.70932V8.70932C166.989 8.355 166.573 8.24292 166.123 8.24292V8.24292C166.099 8.24292 166.076 8.24344 166.053 8.24395V8.24395ZM163.886 12.3667C164.011 12.1596 164.132 11.9478 164.28 11.7587V11.7587C164.743 11.1668 165.3 10.6751 165.921 10.2578V10.2578C166.034 10.1814 166.167 10.1354 166.357 10.0435V10.0435C166.417 10.3146 166.461 10.5088 166.508 10.7196V10.7196C166.009 11.3905 165.414 11.9514 164.702 12.3801V12.3801C164.346 12.5939 164.246 12.6172 163.866 12.6389V12.6389C163.785 12.5428 163.839 12.4467 163.886 12.3667V12.3667Z" fill="#CCCCCC"/>
<path fill-rule="evenodd" clip-rule="evenodd" d="M61.7855 11.5466C61.4185 11.6457 61.0388 11.7186 60.6902 11.8652V11.8652C58.7675 12.6756 57.3124 14.0221 56.2948 15.8542V15.8542C56.028 16.335 55.8328 16.8464 55.7372 17.3913V17.3913C55.5405 18.5167 55.9463 19.4206 56.995 19.9603V19.9603C57.4509 20.1943 57.9395 20.3157 58.4399 20.3498V20.3498C59.3419 20.4102 60.2466 20.4732 61.1492 20.4541V20.4541C63.4184 20.4061 65.6876 20.3735 67.9564 20.4438V20.4438C69.0005 20.4763 70.0457 20.4934 71.0883 20.5528V20.5528C72.572 20.638 74.0547 20.7444 75.5364 20.8627V20.8627C76.6771 20.9536 77.8148 21.0816 78.9551 21.1829V21.1829C79.3343 21.217 79.7176 21.2418 80.0973 21.2294V21.2294C80.497 21.2165 80.7745 20.9236 80.7802 20.5218V20.5218C80.7832 20.325 80.7439 20.1137 80.6667 19.9335V19.9335C80.4674 19.4635 80.1147 19.1386 79.6292 18.9821V18.9821C79.3813 18.902 79.1268 18.8225 78.8712 18.7946V18.7946C77.6124 18.6598 76.3541 18.5312 75.0933 18.4217V18.4217C74.2132 18.3447 73.33 18.3029 72.4478 18.243V18.243C70.6641 18.1216 68.8799 18.0074 67.0906 18.0276V18.0276C65.8456 18.0415 64.599 18.0467 63.3545 18.1014V18.1014C61.9506 18.1629 60.5481 18.2812 59.1452 18.3638V18.3638C58.744 18.3876 58.3417 18.3804 57.94 18.368V18.368C57.8102 18.3643 57.6814 18.2998 57.524 18.2554V18.2554C57.594 18.009 57.6533 17.7988 57.7295 17.5297V17.5297C58.4174 17.6702 58.9924 17.4951 59.5581 17.273V17.273C59.783 17.1847 60.0053 17.0901 60.2256 16.9915V16.9915C61.5069 16.4135 62.5255 15.5195 63.3019 14.346V14.346C63.4675 14.0955 63.6142 13.8186 63.7021 13.533V13.533C63.9735 12.6477 63.6341 11.9618 62.8434 11.6623V11.6623C62.6032 11.5708 62.363 11.5032 62.1156 11.5032V11.5032C62.0073 11.5032 61.8974 11.5161 61.7855 11.5466V11.5466ZM60.4425 14.3353C60.2146 14.6648 59.8901 14.8849 59.5338 15.1044V15.1044C59.7091 14.7475 59.82 14.6493 60.4425 14.3353V14.3353Z" fill="#CCCCCC"/>
<path fill-rule="evenodd" clip-rule="evenodd" d="M54.272 9.67208C53.9858 10.0879 53.7205 10.5212 53.4041 10.9132V10.9132C52.2501 12.3434 51.0858 13.7653 49.9103 15.178V15.178C49.5229 15.6428 49.0956 16.0741 48.6725 16.5069V16.5069C48.5222 16.6608 48.3832 16.8483 48.1103 16.8989V16.8989C48.1338 16.7476 48.1419 16.6097 48.1772 16.4795V16.4795C48.4011 15.6578 48.6382 14.8402 48.8559 14.0174V14.0174C48.9382 13.7049 49.0144 13.3842 49.0374 13.0634V13.0634C49.0803 12.4658 48.5201 11.8631 47.9344 11.8321V11.8321C47.6707 11.8176 47.4663 11.908 47.3334 12.1508V12.1508C47.2373 12.3269 47.1509 12.5159 47.0206 12.6647V12.6647C46.5157 13.2426 46.0286 13.8413 45.4735 14.3671V14.3671C44.5658 15.226 43.6198 16.0457 42.6717 16.8597V16.8597C42.0589 17.386 41.3838 17.8281 40.6652 18.1984V18.1984C40.3938 18.3379 40.1158 18.4329 39.8035 18.434V18.434C39.5198 18.4355 39.3507 18.3038 39.2587 18.0466V18.0466C39.1488 17.7377 39.0921 17.4242 39.1815 17.0782V17.0782C39.6732 17.0053 40.0984 16.7915 40.495 16.5048V16.5048C41.6588 15.663 42.5854 14.6119 43.2365 13.3217V13.3217C43.3811 13.0345 43.4997 12.7267 43.5825 12.4157V12.4157C43.7537 11.7696 43.2534 10.9117 42.613 10.7479V10.7479C42.3242 10.6736 42.0288 10.6457 41.7206 10.7092V10.7092C41.3133 10.7924 40.9698 10.9897 40.6361 11.2128V11.2128C39.7902 11.7804 39.0701 12.4834 38.4931 13.3273V13.3273C37.6753 14.523 37.3124 15.8437 37.4622 17.3013V17.3013C37.5245 17.903 37.728 18.4479 38.074 18.9334V18.9334C38.7425 19.8704 39.6461 20.2815 40.7914 20.1374V20.1374C41.1773 20.0883 41.5402 19.9695 41.8719 19.781V19.781C42.3784 19.4943 42.8818 19.1963 43.3586 18.8621V18.8621C44.2684 18.2253 45.1004 17.4908 45.888 16.7063V16.7063C45.9795 16.6154 46.092 16.5462 46.2289 16.4398V16.4398C46.2289 16.6608 46.232 16.8189 46.2289 16.9764V16.9764C46.2095 18.2129 47.3038 19.0915 48.4624 18.9592V18.9592C48.9423 18.9045 49.3583 18.7175 49.7171 18.4231V18.4231C50.1669 18.0528 50.6034 17.6592 51.0046 17.2362V17.2362C52.2296 15.9475 53.3305 14.5509 54.4146 13.1419V13.1419C54.9446 12.4534 55.4424 11.7407 55.9688 11.0501V11.0501C56.2279 10.7082 56.1967 10.3719 56.0102 10.0274V10.0274C55.841 9.71443 55.5896 9.48872 55.2558 9.36011V9.36011C55.1168 9.30692 54.9941 9.27954 54.8822 9.27954V9.27954C54.643 9.27954 54.4554 9.40557 54.272 9.67208V9.67208ZM41.3882 12.9546C41.4762 13.0331 41.4061 13.1008 41.3678 13.1612V13.1612C40.9661 13.7949 40.3712 14.4566 39.7778 14.9085V14.9085C39.9919 14.2402 40.7504 13.3435 41.3882 12.9546V12.9546Z" fill="#CCCCCC"/>
<path fill-rule="evenodd" clip-rule="evenodd" d="M176.665 6.61937C176.002 6.75005 175.42 7.05788 174.875 7.45197V7.45197C174.719 7.56405 174.601 7.74586 174.443 7.76342V7.76342C174.207 7.50723 174.032 7.2526 173.797 7.07699V7.07699C173.413 6.79033 173.042 6.86677 172.75 7.25053V7.25053C172.64 7.39257 172.55 7.55527 172.48 7.72158V7.72158C172.013 8.84187 171.537 9.95905 171.097 11.0907V11.0907C170.9 11.5969 170.741 12.1196 170.673 12.6702V12.6702C170.601 13.2517 170.845 13.651 171.292 13.9542V13.9542C171.673 14.2129 172.244 14.2997 172.582 13.6928V13.6928C172.612 13.6401 172.646 13.5895 172.68 13.5394V13.5394C173.145 12.8298 173.598 12.1103 174.08 11.4125V11.4125C174.493 10.8144 174.922 10.2266 175.374 9.65794V9.65794C175.768 9.16313 176.267 8.7835 176.84 8.51441V8.51441C176.964 8.45707 177.099 8.42763 177.322 8.35429V8.35429C177.293 8.53713 177.291 8.61616 177.268 8.68795V8.68795C177.158 9.01386 177.056 9.34287 176.928 9.66155V9.66155C176.649 10.3568 176.356 11.0458 176.068 11.7368V11.7368C175.934 12.0581 175.867 12.3928 175.83 12.7378V12.7378C175.804 12.9713 175.84 13.1898 175.949 13.3855V13.3855C176.231 13.8927 176.584 14.3276 177.185 14.466V14.466C177.419 14.5203 177.653 14.5853 177.891 14.6158V14.6158C179.029 14.7594 180.174 14.7966 181.318 14.7599V14.7599C183.304 14.6959 185.289 14.6029 187.275 14.5301V14.5301C189.222 14.4588 191.168 14.4263 193.116 14.4857V14.4857C193.459 14.496 193.793 14.481 194.128 14.3896V14.3896C194.671 14.2429 194.897 13.8927 194.743 13.3499V13.3499C194.568 12.7321 194.149 12.3582 193.543 12.1857V12.1857C192.916 12.0075 192.272 12.0333 191.631 12.0199V12.0199C188.395 11.9522 185.173 12.1883 181.952 12.4692V12.4692C180.712 12.5777 179.466 12.6102 178.224 12.6733V12.6733C178.135 12.6774 178.044 12.6479 177.936 12.6314V12.6314C177.962 12.2595 178.133 11.977 178.237 11.6759V11.6759C178.423 11.1403 178.648 10.6181 178.819 10.0784V10.0784C179.031 9.41415 179.118 8.73289 178.952 8.03923V8.03923C178.777 7.30786 178.346 6.81822 177.62 6.61679V6.61679C177.477 6.57753 177.333 6.56152 177.189 6.56152V6.56152C177.014 6.56152 176.839 6.58477 176.665 6.61937V6.61937Z" fill="#CCCCCC"/>
<path fill-rule="evenodd" clip-rule="evenodd" d="M153.925 5.60865C153.678 5.73725 153.445 5.9046 153.229 6.08227V6.08227C152.307 6.83843 151.466 7.68136 150.71 8.60589V8.60589C150.431 8.94678 150.197 9.3295 149.974 9.71171V9.71171C149.82 9.97358 149.756 10.2742 149.751 10.5851V10.5851C149.741 11.2746 150.081 11.7803 150.579 12.1981V12.1981C151.102 12.6366 151.736 12.837 152.374 13.0256V13.0256C152.659 13.1092 152.945 13.197 153.279 13.2978V13.2978C153.247 13.4765 153.242 13.5803 153.208 13.6722V13.6722C153.151 13.8236 153.092 13.979 153.003 14.1113V14.1113C152.722 14.5301 152.458 14.9671 152.131 15.3467V15.3467C151.261 16.3544 150.37 17.3445 149.469 18.3254V18.3254C148.937 18.9044 148.379 19.4591 147.819 20.0102V20.0102C147.555 20.2705 147.516 20.5665 147.586 20.9032V20.9032C147.676 21.3329 147.951 21.6144 148.313 21.8252V21.8252C148.752 22.0808 149.177 22.1418 149.584 21.7549V21.7549C149.846 21.5055 150.134 21.2834 150.385 21.0236V21.0236C151.578 19.7907 152.7 18.4943 153.758 17.1421V17.1421C154.333 16.4066 154.806 15.606 155.068 14.697V14.697C155.21 14.2022 155.221 13.6991 155.087 13.1981V13.1981C154.917 12.5726 154.507 12.1408 153.972 11.8216V11.8216C153.572 11.583 153.133 11.4389 152.683 11.3206V11.3206C152.357 11.2354 152.035 11.1316 151.668 11.0236V11.0236C151.747 10.8351 151.784 10.6765 151.87 10.5484V10.5484C152.081 10.2282 152.288 9.8992 152.542 9.61513V9.61513C153.107 8.98293 153.692 8.36933 154.283 7.76193V7.76193C154.578 7.45978 154.886 7.17467 155.303 7.02489V7.02489C155.578 6.92572 155.674 6.65611 155.605 6.37255V6.37255C155.586 6.29456 155.556 6.2176 155.52 6.14529V6.14529C155.315 5.72744 154.893 5.479 154.455 5.479V5.479C154.277 5.479 154.095 5.52032 153.925 5.60865V5.60865Z" fill="#CCCCCC"/>
<path fill-rule="evenodd" clip-rule="evenodd" d="M145.986 6.89086C145.719 6.96782 145.457 7.07318 145.21 7.20024V7.20024C144.778 7.42285 144.405 7.73637 144.064 8.08087V8.08087C142.838 9.32563 141.832 10.7315 141.088 12.3229V12.3229C140.837 12.859 140.681 13.422 140.605 14.0098V14.0098C140.519 14.6719 140.599 15.3113 140.945 15.8883V15.8883C141.937 17.5457 143.849 18.1387 145.487 17.6438V17.6438C146.454 17.3515 146.955 16.6134 147.147 15.5804V15.5804C146.565 15.6522 146.028 15.7018 145.498 15.7876V15.7876C144.884 15.8862 144.273 16.0029 143.646 15.9601V15.9601C143.361 15.941 143.091 15.8774 142.841 15.74V15.74C142.553 15.582 142.384 15.3413 142.407 15.0009V15.0009C142.431 14.6383 142.465 14.2747 142.618 13.9421V13.9421C142.854 13.8558 143.088 13.7939 143.301 13.6885V13.6885C145.043 12.8218 146.481 11.59 147.609 9.9914V9.9914C147.88 9.60713 148.049 9.17017 148.113 8.70377V8.70377C148.173 8.27146 148.129 7.84276 147.819 7.50394V7.50394C147.437 7.08558 146.994 6.81958 146.469 6.81958V6.81958C146.315 6.81958 146.154 6.84231 145.986 6.89086V6.89086Z" fill="#CCCCCC"/>
<path fill-rule="evenodd" clip-rule="evenodd" d="M98.8076 9.99272C98.4351 10.2024 98.1182 10.4793 97.8417 10.8041V10.8041C97.7119 10.9565 97.581 11.1078 97.44 11.2726V11.2726C97.2754 11.1626 97.1348 11.0474 96.9769 10.9694V10.9694C96.5302 10.7473 96.1766 10.9307 96.0876 11.4177V11.4177C96.0733 11.4978 96.0656 11.5794 96.0605 11.66V11.66C96.0094 12.4099 95.8919 13.1496 95.7268 13.882V13.882C95.5525 14.6526 95.3716 15.4211 95.2116 16.1948V16.1948C95.0782 16.8436 95.5188 17.4665 96.1633 17.5749V17.5749C96.4582 17.625 96.7265 17.4778 96.8389 17.1958V17.1958C96.8762 17.1023 96.8895 16.9995 96.9222 16.9035V16.9035C97.2391 15.9857 97.5427 15.0622 97.8815 14.1526V14.1526C98.1299 13.4874 98.4586 12.8588 98.8853 12.2886V12.2886C99.0765 12.0339 99.2702 11.7752 99.6417 11.5556V11.5556C99.6586 11.7715 99.675 11.8893 99.675 12.0071V12.0071C99.6745 12.4327 99.6668 12.8588 99.6653 13.2844V13.2844C99.6622 14.1975 99.6499 15.1097 99.6663 16.0218V16.0218C99.6719 16.3219 99.7189 16.6313 99.8089 16.9164V16.9164C99.9438 17.3435 100.377 17.6297 100.77 17.6157V17.6157C100.995 17.6085 101.165 17.5052 101.23 17.2909V17.2909C101.293 17.0796 101.348 16.8565 101.352 16.638V16.638C101.378 15.0766 101.396 13.5142 101.234 11.9575V11.9575C101.185 11.4932 101.076 11.0443 100.864 10.6198V10.6198C100.628 10.1492 100.123 9.79077 99.5462 9.79077V9.79077C99.3075 9.79129 99.0565 9.85275 98.8076 9.99272V9.99272Z" fill="#CCCCCC"/>
<path fill-rule="evenodd" clip-rule="evenodd" d="M91.4153 10.586C91.3407 10.8169 91.2895 11.056 91.241 11.2946V11.2946C90.9144 12.8911 90.7851 14.5067 90.7815 16.1337V16.1337C90.7815 16.5805 90.7667 17.0278 90.7851 17.4735V17.4735C90.8117 18.1109 90.9829 18.7121 91.3013 19.2663V19.2663C91.5277 19.6604 91.8696 19.8902 92.3153 19.947V19.947C92.5468 19.9759 92.7206 19.8613 92.7625 19.634V19.634C92.7993 19.4378 92.8131 19.2281 92.7886 19.0313V19.0313C92.6812 18.1615 92.6853 17.2881 92.6971 16.4152V16.4152C92.7191 14.828 92.8468 13.2475 93.2624 11.7135V11.7135C93.4601 10.9832 92.8474 10.2027 92.1615 10.1191V10.1191C92.1201 10.1139 92.0792 10.1113 92.0408 10.1113V10.1113C91.7362 10.1113 91.518 10.2699 91.4153 10.586V10.586Z" fill="#CCCCCC"/>
<path fill-rule="evenodd" clip-rule="evenodd" d="M157.816 9.00534C157.724 9.22847 157.635 9.4578 157.579 9.6928V9.6928C157.326 10.7563 157.075 11.8208 156.841 12.8889V12.8889C156.737 13.3625 156.674 13.8455 156.614 14.208V14.208C156.614 14.4301 156.605 14.5319 156.614 14.6326V14.6326C156.668 15.1837 157.202 15.7038 157.736 15.7317V15.7317C158.075 15.7498 158.265 15.6367 158.39 15.317V15.317C158.457 15.1481 158.509 14.9725 158.548 14.7948V14.7948C158.688 14.1621 158.836 13.5304 158.949 12.8925V12.8925C159.126 11.8957 159.272 10.8921 159.443 9.89372V9.89372C159.491 9.62308 159.453 9.36741 159.383 9.11381V9.11381C159.275 8.7285 158.916 8.42686 158.565 8.40362V8.40362C158.553 8.40259 158.54 8.40259 158.528 8.40259V8.40259C158.243 8.40259 157.977 8.61848 157.816 9.00534V9.00534Z" fill="#CCCCCC"/>
<path fill-rule="evenodd" clip-rule="evenodd" d="M93.4722 4.16279C93.232 4.16279 92.9923 4.15349 92.7526 4.16537V4.16537C92.5732 4.17467 92.3917 4.19326 92.2185 4.23768V4.23768C91.8607 4.33065 91.6941 4.62196 91.7912 4.97886V4.97886C91.9261 5.47366 92.2573 5.76807 92.7485 5.87447V5.87447C92.8839 5.90442 93.0275 5.90132 93.1671 5.90494V5.90494C93.4134 5.91062 93.6598 5.90959 93.9061 5.90907V5.90907C94.639 5.90597 95.3714 5.90339 96.0946 6.08571V6.08571C96.296 6.13633 96.4401 5.96072 96.3951 5.75154V5.75154C96.3389 5.49019 96.2239 5.25622 96.0445 5.05788V5.05788C95.6223 4.59406 95.101 4.30999 94.4893 4.21495V4.21495C94.1545 4.16382 93.8121 4.16175 93.4732 4.13696V4.13696C93.4732 4.14574 93.4727 4.15401 93.4722 4.16279V4.16279Z" fill="#CCCCCC"/>
<path fill-rule="evenodd" clip-rule="evenodd" d="M157.929 4.82708C158.069 5.16228 158.308 5.40401 158.635 5.54036V5.54036C159.285 5.81049 159.936 6.07649 160.596 6.31666V6.31666C160.857 6.4117 161.141 6.44888 161.419 6.48607V6.48607C161.553 6.50363 161.697 6.47264 161.831 6.43855V6.43855C161.973 6.4024 162.044 6.24125 162.001 6.09818V6.09818C161.93 5.85904 161.788 5.66587 161.617 5.48871V5.48871C160.918 4.75787 160.069 4.27132 159.129 3.93663V3.93663C158.981 3.88395 158.816 3.88343 158.777 3.87775V3.87775C158.614 3.87775 158.573 3.8824 158.535 3.87724V3.87724C158.505 3.87362 158.477 3.87207 158.45 3.87207V3.87207C158.001 3.87207 157.707 4.2987 157.929 4.82708V4.82708Z" fill="#CCCCCC"/>
<path fill-rule="evenodd" clip-rule="evenodd" d="M36.2324 3.8934C35.9263 3.91044 35.7085 4.12944 35.6983 4.43985V4.43985C35.6942 4.55865 35.7121 4.6857 35.7515 4.79727V4.79727C35.935 5.31015 36.1113 5.82665 36.3265 6.32611V6.32611C36.4374 6.58177 36.6096 6.81575 36.7844 7.03474V7.03474C36.8938 7.17265 37.0481 7.28266 37.202 7.3715V7.3715C37.4371 7.50734 37.7003 7.41592 37.8015 7.16903V7.16903C37.8613 7.02131 37.8756 6.85655 37.8991 6.7548V6.7548C37.8914 6.65512 37.8883 6.61535 37.8848 6.57454V6.57454C37.8321 5.85661 37.5464 5.20014 37.296 4.54573V4.54573C37.1401 4.13718 36.7721 3.89185 36.3065 3.89185V3.89185C36.2825 3.89185 36.2575 3.89185 36.2324 3.8934V3.8934Z" fill="#CCCCCC"/>
<path fill-rule="evenodd" clip-rule="evenodd" d="M131.67 1.61172C131.429 1.7646 131.152 1.89063 130.874 1.95003V1.95003C130.273 2.07812 129.662 2.15921 129.053 2.25321V2.25321C125.136 2.857 121.38 3.9716 117.855 5.8279V5.8279C116.046 6.77981 114.486 8.02406 113.346 9.75846V9.75846C112.489 11.0621 112.445 12.7841 113.264 13.8781V13.8781C113.386 14.0418 113.67 14.2205 113.828 14.1807V14.1807C114.002 14.1379 114.199 13.8677 114.239 13.6668V13.6668C114.31 13.3006 114.299 12.9117 114.275 12.5352V12.5352C114.237 11.9618 114.396 11.449 114.746 11.0234V11.0234C115.188 10.4847 115.636 9.93045 116.169 9.48988V9.48988C117.804 8.13923 119.712 7.25757 121.663 6.50813V6.50813C123.109 5.95289 124.608 5.52575 126.108 5.14147V5.14147C127.507 4.78251 128.935 4.53975 130.355 4.27685V4.27685C130.968 4.16322 131.118 4.36673 130.979 4.98756V4.98756C130.855 5.54073 130.755 6.1001 130.618 6.65017V6.65017C129.71 10.3034 128.905 13.971 129.04 17.7735V17.7735C129.066 18.5043 128.678 18.9341 128.104 19.2471V19.2471C127.001 19.8488 125.94 20.543 124.612 20.5786V20.5786C124.113 20.5915 123.827 20.9737 123.849 21.3601V21.3601C123.888 22.0909 124.742 22.8156 125.469 22.6807V22.6807C126.044 22.5743 126.622 22.4313 127.169 22.2236V22.2236C129.501 21.3379 131.489 19.8596 133.459 18.3711V18.3711C135.353 16.9409 137.003 15.2375 138.52 13.4163V13.4163C139.697 12.0032 140.672 10.447 141.151 8.57206V8.57206C141.489 7.47502 141.365 6.29533 140.824 5.30985V5.30985C140.011 3.82698 138.715 2.79295 137.024 2.42624V2.42624C136.032 2.21086 135.013 2.1246 134.011 1.94744V1.94744C133.571 1.86997 133.119 1.76719 132.719 1.57556V1.57556C132.533 1.48673 132.366 1.43921 132.203 1.43921V1.43921C132.027 1.43921 131.856 1.49447 131.67 1.61172V1.61172ZM130.798 17.2129C130.686 17.1437 130.626 16.8901 130.638 16.7253V16.7253C130.819 14.3541 131.104 11.9983 131.7 9.69063V9.69063C131.787 9.35026 131.872 9.00988 131.958 8.66899V8.66899C131.943 8.66538 131.928 8.66125 131.913 8.65711V8.65711C132.224 7.4263 132.527 6.1929 132.85 4.9657V4.9657C133.044 4.23072 133.238 4.08713 133.984 4.10314V4.10314C135.472 4.13413 136.905 4.42595 138.269 5.04317V5.04317C139.019 5.38354 139.423 6.09889 139.364 6.93252V6.93252C139.276 8.19123 138.676 9.24902 138.077 10.3058V10.3058C137.419 11.4658 136.495 12.4126 135.591 13.3697V13.3697C134.389 14.6433 133.073 15.7879 131.696 16.8622V16.8622C131.569 16.9614 131.453 17.0915 131.31 17.1484V17.1484C131.196 17.1933 131.046 17.2424 130.927 17.2424V17.2424C130.878 17.2424 130.833 17.2341 130.798 17.2129V17.2129Z" fill="#CCCCCC"/>
<mask id="mask0_301_59" style="mask-type:luminance" maskUnits="userSpaceOnUse" x="112" y="1" width="30" height="22">
<path fill-rule="evenodd" clip-rule="evenodd" d="M131.67 1.61172C131.429 1.7646 131.152 1.89063 130.874 1.95003V1.95003C130.273 2.07812 129.662 2.15921 129.053 2.25321V2.25321C125.136 2.857 121.38 3.9716 117.855 5.8279V5.8279C116.046 6.77981 114.486 8.02406 113.346 9.75846V9.75846C112.489 11.0621 112.445 12.7841 113.264 13.8781V13.8781C113.386 14.0418 113.67 14.2205 113.828 14.1807V14.1807C114.002 14.1379 114.199 13.8677 114.239 13.6668V13.6668C114.31 13.3006 114.299 12.9117 114.275 12.5352V12.5352C114.237 11.9618 114.396 11.449 114.746 11.0234V11.0234C115.188 10.4847 115.636 9.93045 116.169 9.48988V9.48988C117.804 8.13923 119.712 7.25757 121.663 6.50813V6.50813C123.109 5.95289 124.608 5.52575 126.108 5.14147V5.14147C127.507 4.78251 128.935 4.53975 130.355 4.27685V4.27685C130.968 4.16322 131.118 4.36673 130.979 4.98756V4.98756C130.855 5.54073 130.755 6.1001 130.618 6.65017V6.65017C129.71 10.3034 128.905 13.971 129.04 17.7735V17.7735C129.066 18.5043 128.678 18.9341 128.104 19.2471V19.2471C127.001 19.8488 125.94 20.543 124.612 20.5786V20.5786C124.113 20.5915 123.827 20.9737 123.849 21.3601V21.3601C123.888 22.0909 124.742 22.8156 125.469 22.6807V22.6807C126.044 22.5743 126.622 22.4313 127.169 22.2236V22.2236C129.501 21.3379 131.489 19.8596 133.459 18.3711V18.3711C135.353 16.9409 137.003 15.2375 138.52 13.4163V13.4163C139.697 12.0032 140.672 10.447 141.151 8.57206V8.57206C141.489 7.47502 141.365 6.29533 140.824 5.30985V5.30985C140.011 3.82698 138.715 2.79295 137.024 2.42624V2.42624C136.032 2.21086 135.013 2.1246 134.011 1.94744V1.94744C133.571 1.86997 133.119 1.76719 132.719 1.57556V1.57556C132.533 1.48673 132.366 1.43921 132.203 1.43921V1.43921C132.027 1.43921 131.856 1.49447 131.67 1.61172V1.61172ZM130.798 17.2129C130.686 17.1437 130.626 16.8901 130.638 16.7253V16.7253C130.819 14.3541 131.104 11.9983 131.7 9.69063V9.69063C131.787 9.35026 131.872 9.00988 131.958 8.66899V8.66899C131.943 8.66538 131.928 8.66125 131.913 8.65711V8.65711C132.224 7.4263 132.527 6.1929 132.85 4.9657V4.9657C133.044 4.23072 133.238 4.08713 133.984 4.10314V4.10314C135.472 4.13413 136.905 4.42595 138.269 5.04317V5.04317C139.019 5.38354 139.423 6.09889 139.364 6.93252V6.93252C139.276 8.19123 138.676 9.24902 138.077 10.3058V10.3058C137.419 11.4658 136.495 12.4126 135.591 13.3697V13.3697C134.389 14.6433 133.073 15.7879 131.696 16.8622V16.8622C131.569 16.9614 131.453 17.0915 131.31 17.1484V17.1484C131.196 17.1933 131.046 17.2424 130.927 17.2424V17.2424C130.878 17.2424 130.833 17.2341 130.798 17.2129V17.2129Z" fill="white"/>
</mask>
<g mask="url(#mask0_301_59)">
</g>
</svg>
