<svg width="24" height="26" viewBox="0 0 24 26" fill="none" xmlns="http://www.w3.org/2000/svg">
<path d="M10.6803 2.84354V25.2168L11.9998 25.9995L13.3242 25.2168V2.84354H23.9995V0H0V2.84354H10.6803Z" fill="#004EFF"/>
<path d="M16.0176 5.48242V23.6405L18.6615 22.104V8.1313V8.12631H21.3552V20.5775L23.9991 19.0411V5.48242H16.0176Z" fill="#004EFF"/>
<path d="M21.3555 9.92671V8.13086H23.9994L21.3555 9.92671Z" fill="black" fill-opacity="0.32"/>
<path d="M16.0176 5.48242V23.6405L18.6615 22.104V8.1313V8.12631H21.3552V20.5775L23.9991 19.0411V5.48242H16.0176Z" fill="#004EFF"/>
<path d="M7.98242 5.48242V23.6405L5.33853 22.104V8.1313V8.12631H2.64475V20.5775L0.000864029 19.0411V5.48242H7.98242Z" fill="#004EFF"/>
</svg>
